<svg width="20" height="20" viewBox="0 0 20 20" fill="none" xmlns="http://www.w3.org/2000/svg">
<path opacity="0.4" d="M8.33337 14.5834H11.6667" stroke="#171717" stroke-width="1.5" stroke-linecap="round" stroke-linejoin="round"/>
<path opacity="0.4" d="M1.66663 14.5834V6.25004C1.66663 2.91671 2.49996 2.08337 5.83329 2.08337" stroke="#171717" stroke-width="1.5" stroke-linecap="round" stroke-linejoin="round"/>
<path opacity="0.4" d="M18.3333 14.5834V6.25004C18.3333 2.91671 17.5 2.08337 14.1666 2.08337" stroke="#171717" stroke-width="1.5" stroke-linecap="round" stroke-linejoin="round"/>
<path d="M8.33329 13.2584V16.0001C8.33329 17.6667 7.66663 18.3334 5.99996 18.3334H3.99996C2.33329 18.3334 1.66663 17.6667 1.66663 16.0001V13.2584C1.66663 11.5917 2.33329 10.925 3.99996 10.925H5.99996C7.66663 10.925 8.33329 11.5917 8.33329 13.2584Z" stroke="#171717" stroke-width="1.5" stroke-linecap="round" stroke-linejoin="round"/>
<path d="M18.3333 13.2584V16.0001C18.3333 17.6667 17.6666 18.3334 16 18.3334H14C12.3333 18.3334 11.6666 17.6667 11.6666 16.0001V13.2584C11.6666 11.5917 12.3333 10.925 14 10.925H16C17.6666 10.925 18.3333 11.5917 18.3333 13.2584Z" stroke="#171717" stroke-width="1.5" stroke-linecap="round" stroke-linejoin="round"/>
</svg>
