<svg width="21" height="21" viewBox="0 0 21 21" fill="none" xmlns="http://www.w3.org/2000/svg">
<path d="M6.0899 1.88192C7.55821 1.00859 9.31898 0.5 11.212 0.5C16.3416 0.5 20.5 4.23436 20.5 8.84093C20.5 12.0877 19.8118 15.19 18.5587 18.0365M3.46286 4.24109C2.49037 5.55968 1.92404 7.14091 1.92404 8.84093C1.92404 10.4731 1.40236 11.9959 0.5 13.2818M2.96292 17.2397C5.20346 15.0194 6.56803 12.0733 6.56803 8.84093C6.56803 6.53764 8.64721 4.67046 11.212 4.67046C13.7768 4.67046 15.856 6.53764 15.856 8.84093C15.856 9.42691 15.8295 10.0072 15.7767 10.581M11.2124 8.84093C11.2124 12.9809 9.53306 16.7687 6.75275 19.6848M14.968 14.5731C14.2897 16.7084 13.2418 18.7038 11.8905 20.5" stroke="#8C8C8C" stroke-linecap="round" stroke-linejoin="round"/>
</svg>
