<svg width="20" height="20" viewBox="0 0 20 20" fill="none" xmlns="http://www.w3.org/2000/svg">
<path d="M6.79995 18.3333C3.31662 18.3333 2.61662 16.225 3.74995 13.6583L7.29162 5.61663H7.04162C6.49995 5.61663 5.99995 5.39996 5.64162 5.04163C5.27495 4.68329 5.05828 4.18329 5.05828 3.64163C5.05828 2.55829 5.94162 1.66663 7.03328 1.66663H12.9583C13.5083 1.66663 13.9999 1.89163 14.3583 2.24996C14.8249 2.71663 15.0583 3.39996 14.8833 4.12496C14.6583 5.02496 13.7916 5.61663 12.8666 5.61663H12.7333L16.2499 13.6666C17.3749 16.2333 16.6416 18.3333 13.1916 18.3333H6.79995Z" stroke="#999999" stroke-width="1.5" stroke-linecap="round" stroke-linejoin="round"/>
<path d="M4.94995 10.9334C4.94995 10.9334 7.49995 10.8334 9.99995 11.6667C12.5 12.5001 14.8583 10.925 14.8583 10.925" stroke="#999999" stroke-width="1.5" stroke-linecap="round" stroke-linejoin="round"/>
</svg>
